<?xml version="1.0" standalone="no"?>
<!DOCTYPE svg PUBLIC "-//W3C//DTD SVG 20010904//EN"
 "http://www.w3.org/TR/2001/REC-SVG-20010904/DTD/svg10.dtd">
<svg version="1.0" xmlns="http://www.w3.org/2000/svg"
 width="265.000000pt" height="190.000000pt" viewBox="0 0 265.000000 190.000000"
 preserveAspectRatio="xMidYMid meet">
<metadata>
Created by potrace 1.10, written by Peter Selinger 2001-2011
</metadata>
<g transform="translate(0.000000,190.000000) scale(0.100000,-0.100000)"
fill="#ff0000" stroke="none">
<path d="M1209 1705 c-22 -53 -23 -54 -66 -57 l-43 -3 36 -54 c47 -70 97 -176
97 -207 0 -15 -14 -39 -31 -57 -62 -66 -64 -101 -10 -188 l31 -48 -22 -55
c-37 -89 -80 -118 -95 -63 -4 12 -9 76 -13 143 l-6 121 38 68 c24 43 34 70 27
73 -47 15 -105 109 -118 191 -8 50 -16 57 -38 32 -16 -18 -20 -18 -53 -5 -19
8 -39 14 -45 12 -5 -2 -24 -30 -41 -63 -30 -56 -34 -60 -67 -60 -19 1 -45 4
-57 8 l-22 8 19 -43 c10 -24 22 -67 26 -96 l7 -52 42 39 c66 61 154 79 179 38
9 -15 5 -24 -26 -53 -39 -36 -48 -54 -25 -54 8 0 22 -9 31 -19 15 -17 18 -48
22 -218 6 -265 10 -296 39 -327 20 -22 33 -26 81 -26 l57 0 -9 -102 c-14 -175
-13 -186 29 -247 34 -49 37 -59 37 -121 0 -48 4 -71 15 -80 30 -25 161 19 190
64 17 26 17 27 -23 89 -59 91 -68 113 -52 132 8 9 26 23 42 31 40 21 46 55 15
96 -39 51 -77 128 -77 155 0 14 4 23 8 21 4 -1 72 -72 151 -155 79 -84 149
-153 155 -153 8 0 11 46 10 157 -1 87 -2 163 -3 170 0 6 -16 13 -33 15 l-33 3
0 60 c0 67 -15 80 -57 51 -21 -15 -58 -22 -58 -11 0 13 50 102 63 113 17 14
74 -4 139 -45 l38 -23 2 -253 3 -252 30 0 30 0 5 255 c4 222 7 258 23 280 10
15 17 43 17 72 0 26 5 50 10 53 23 14 2 112 -32 153 -7 8 -13 36 -14 63 l-1
49 63 0 64 0 0 103 c1 70 5 108 14 120 12 16 11 24 -11 63 -14 24 -28 44 -32
44 -4 0 -17 -20 -29 -45 -17 -35 -20 -51 -12 -65 5 -10 10 -44 10 -74 l0 -56
-35 0 -35 0 0 56 c0 30 5 64 10 74 8 14 5 30 -12 65 -12 25 -25 45 -28 45 -3
0 -16 -20 -30 -44 -21 -39 -22 -48 -11 -68 7 -13 11 -46 9 -74 -3 -47 -4 -49
-35 -52 l-33 -3 0 63 c0 35 4 69 9 77 5 8 -1 29 -17 58 -24 43 -26 45 -39 27
-30 -40 -42 -70 -32 -85 5 -8 9 -62 9 -121 l0 -108 65 0 65 0 0 -35 c0 -31 -3
-35 -26 -35 -14 0 -56 -13 -94 -30 -80 -35 -90 -36 -90 -12 0 11 14 27 35 38
19 10 35 24 35 30 0 7 -19 26 -42 43 l-43 32 3 67 c4 86 18 138 48 185 l24 37
-40 0 c-40 0 -42 2 -62 50 -11 28 -24 50 -29 50 -5 0 -20 -22 -34 -50 -24 -47
-28 -50 -63 -50 -36 0 -40 3 -62 51 -13 28 -27 52 -31 55 -4 2 -17 -21 -30
-51z m83 -142 c32 -29 16 -80 -17 -53 -15 12 -21 70 -8 70 3 0 15 -7 25 -17z
m138 -12 c0 -31 -22 -57 -40 -46 -15 9 -12 36 7 57 23 26 33 22 33 -11z m-45
-163 c7 -7 -25 -88 -34 -88 -8 0 -41 65 -41 80 0 14 62 21 75 8z m299 -238
c22 -8 26 -16 26 -50 0 -36 -2 -40 -25 -40 -48 0 -122 53 -107 76 15 23 65 30
106 14z"/>
</g>
</svg>
